<svg width="20" height="18" viewBox="0 0 20 18" fill="none" xmlns="http://www.w3.org/2000/svg">
<path d="M19.3043 0.666814L19.9709 0.622815C19.9623 0.491939 19.9152 0.366523 19.8356 0.26227C19.756 0.158016 19.6474 0.0795574 19.5235 0.0367164C19.3995 -0.00612462 19.2656 -0.0114444 19.1387 0.0214232C19.0117 0.0542908 18.8972 0.123885 18.8096 0.221494L19.3043 0.666814ZM18.6403 4.61204C18.6403 4.43523 18.5701 4.26567 18.445 4.14065C18.32 4.01562 18.1504 3.94539 17.9736 3.94539C17.7968 3.94539 17.6273 4.01562 17.5023 4.14065C17.3772 4.26567 17.307 4.43523 17.307 4.61204H18.6403ZM9.9872 4.72137H9.32055H9.9872ZM9.9872 6H10.6538H9.9872ZM0.667465 15.3331V14.6664C0.524321 14.6662 0.384922 14.7121 0.26989 14.7973C0.154858 14.8825 0.0703025 15.0025 0.0287317 15.1395C-0.0128392 15.2764 -0.00921714 15.4232 0.0390619 15.5579C0.087341 15.6927 0.177713 15.8083 0.296809 15.8877L0.667465 15.3331ZM1.99809 0.666814L2.62341 0.433488C2.57797 0.311768 2.49795 0.20598 2.39319 0.129129C2.28843 0.0522772 2.1635 0.00771261 2.03375 0.000913631C1.904 -0.00588535 1.7751 0.0253776 1.66288 0.0908589C1.55066 0.15634 1.46002 0.253186 1.40211 0.369489L1.99809 0.666814ZM7.32328 12.6665L7.79526 13.1371C7.87534 13.0568 7.9336 12.9574 7.96452 12.8482C7.99544 12.7391 7.99801 12.6239 7.97198 12.5135C7.94595 12.4031 7.89218 12.3012 7.81576 12.2173C7.73934 12.1335 7.6428 12.0706 7.53527 12.0345L7.32328 12.6665ZM16.955 1.96411L16.4617 2.4121L16.7017 2.67742L17.055 2.62409L16.955 1.96411ZM18.6403 0.710813C18.7083 1.74812 18.6443 2.37743 18.4763 2.85209C18.3136 3.31207 18.0283 3.69073 17.5123 4.18538L18.435 5.14802C19.0189 4.58804 19.4696 4.03872 19.7336 3.29741C19.9909 2.56943 20.0429 1.72678 19.9696 0.622815L18.639 0.710813H18.6403ZM18.6403 5.58267V4.61337H17.307V5.58401H18.6403V5.58267ZM9.32055 4.72137V6H10.6538V4.72137H9.32055ZM9.32055 6V6.66664H10.6538V6H9.32055ZM14.0338 0.000166448C13.4141 0.000516531 12.8006 0.122912 12.2283 0.360364C11.6559 0.597816 11.1359 0.945674 10.698 1.38408C10.2601 1.82248 9.91285 2.34285 9.67604 2.91546C9.43924 3.48807 9.31754 4.10172 9.31789 4.72137H10.6512C10.6508 4.2767 10.7381 3.83632 10.908 3.42538C11.0779 3.01444 11.327 2.641 11.6413 2.32639C11.9555 2.01178 12.3287 1.76215 12.7394 1.59179C13.1501 1.42142 13.5904 1.33364 14.0351 1.33346V0.000166448H14.0338ZM17.3057 5.58267C17.307 11.3372 12.6498 15.9997 6.90729 15.9997V17.333C13.3871 17.333 18.6403 12.0718 18.6403 5.58267H17.307H17.3057ZM1.37411 0.900141C2.09942 2.83609 4.81935 6.66664 9.9872 6.66664V5.33335C5.56599 5.33335 3.22873 2.05344 2.62208 0.433488L1.37278 0.900141H1.37411ZM1.40211 0.369489C0.00615007 3.16408 -0.20851 5.876 0.806128 8.18527C1.8181 10.4879 3.99537 12.2585 7.11262 13.2985L7.53527 12.0345C4.66202 11.0745 2.84474 9.5119 2.02609 7.64795C1.21012 5.79067 1.32878 3.5014 2.59541 0.964139L1.40211 0.369489ZM6.85129 12.1958C6.04865 12.9998 3.63538 14.6664 0.667465 14.6664V15.9997C4.0887 15.9997 6.82329 14.1118 7.79526 13.1371L6.85129 12.1958ZM17.4497 1.51746C17.0186 1.03941 16.4919 0.657299 15.9036 0.395911C15.3154 0.134524 14.6788 -0.00030586 14.0351 0.000166448V1.33346C14.9964 1.33346 15.8617 1.74812 16.4617 2.4121L17.4483 1.51746H17.4497ZM17.055 2.62409C18.117 2.45058 19.0869 1.91667 19.8016 1.11213L18.8096 0.221494C18.3013 0.795796 17.6114 1.1784 16.855 1.30546L17.055 2.62409ZM0.296809 15.8877C2.48475 17.3463 4.77801 17.333 6.90729 17.333V15.9997C4.73402 15.9997 2.8434 15.985 1.03812 14.7784L0.296809 15.8877Z" fill="white"/>
</svg>
