<svg width="500" height="500" viewBox="0 0 500 500" fill="none" xmlns="http://www.w3.org/2000/svg">
<path d="M500 382.4H0V382.65H500V382.4Z" fill="#EBEBEB"/>
<path d="M85.58 391.92H52.46V392.17H85.58V391.92Z" fill="#EBEBEB"/>
<path d="M226.56 389.21H171.14V389.46H226.56V389.21Z" fill="#EBEBEB"/>
<path d="M110.19 397.86H91V398.11H110.19V397.86Z" fill="#EBEBEB"/>
<path d="M428.65 391.8H385.46V392.05H428.65V391.8Z" fill="#EBEBEB"/>
<path d="M443.89 391.8H437.56V392.05H443.89V391.8Z" fill="#EBEBEB"/>
<path d="M324.05 395.31H277.21V395.56H324.05V395.31Z" fill="#EBEBEB"/>
<path d="M237 337.8H43.91C42.3973 337.797 40.9475 337.195 39.8788 336.124C38.8102 335.053 38.21 333.603 38.21 332.09V60.66C38.2231 59.156 38.8292 57.718 39.8964 56.6582C40.9637 55.5985 42.4059 55.0026 43.91 55H237C238.514 55 239.967 55.6016 241.038 56.6724C242.108 57.7433 242.71 59.1956 242.71 60.71V332.09C242.71 333.604 242.108 335.057 241.038 336.128C239.967 337.198 238.514 337.8 237 337.8ZM43.91 55.2C42.4636 55.2026 41.0774 55.7791 40.0556 56.8027C39.0338 57.8264 38.46 59.2136 38.46 60.66V332.09C38.46 333.536 39.0338 334.924 40.0556 335.947C41.0774 336.971 42.4636 337.547 43.91 337.55H237C238.447 337.547 239.834 336.971 240.858 335.948C241.881 334.924 242.457 333.537 242.46 332.09V60.66C242.457 59.2127 241.881 57.8255 240.858 56.8021C239.834 55.7787 238.447 55.2026 237 55.2H43.91Z" fill="#EBEBEB"/>
<path d="M453.31 337.8H260.21C258.696 337.797 257.246 337.195 256.175 336.125C255.105 335.054 254.503 333.604 254.5 332.09V60.66C254.516 59.1551 255.124 57.7171 256.193 56.6576C257.262 55.5981 258.705 55.0025 260.21 55H453.31C454.812 55.0052 456.252 55.6022 457.317 56.6617C458.382 57.7212 458.987 59.1578 459 60.66V332.09C459 333.601 458.401 335.05 457.335 336.121C456.268 337.191 454.821 337.795 453.31 337.8ZM260.21 55.2C258.763 55.2026 257.375 55.7787 256.352 56.8021C255.329 57.8255 254.753 59.2127 254.75 60.66V332.09C254.753 333.537 255.329 334.924 256.352 335.948C257.375 336.971 258.763 337.547 260.21 337.55H453.31C454.757 337.547 456.145 336.971 457.168 335.948C458.191 334.924 458.767 333.537 458.77 332.09V60.66C458.767 59.2127 458.191 57.8255 457.168 56.8021C456.145 55.7787 454.757 55.2026 453.31 55.2H260.21Z" fill="#EBEBEB"/>
<path d="M434.93 248.86H414.93V382.51H434.93V248.86Z" fill="#E6E6E6"/>
<path d="M429.66 382.51H434.92V364.31H424.15L429.66 382.51Z" fill="#F0F0F0"/>
<path d="M250.56 248.86H230.56V382.51H250.56V248.86Z" fill="#E6E6E6"/>
<path d="M434.92 248.86H245.96V371.34H434.92V248.86Z" fill="#F0F0F0"/>
<path d="M431.34 288.38H249.54V253.79H431.34V288.38ZM250.54 287.38H430.34V254.79H250.54V287.38Z" fill="#E6E6E6"/>
<path d="M399.34 264.73H285.08C279.95 264.73 275.08 260.58 271.51 253.27H412.9C409.37 260.58 404.47 264.73 399.34 264.73Z" fill="#E6E6E6"/>
<path d="M251.22 382.51H245.96V364.31H256.73L251.22 382.51Z" fill="#F0F0F0"/>
<path d="M431.34 327.4H249.54V292.81H431.34V327.4ZM250.54 326.4H430.34V293.81H250.54V326.4Z" fill="#E6E6E6"/>
<path d="M399.34 303.75H285.08C279.95 303.75 275.08 299.6 271.51 292.29H412.9C409.37 299.6 404.47 303.75 399.34 303.75Z" fill="#E6E6E6"/>
<path d="M431.34 366.41H249.54V331.82H431.34V366.41ZM250.54 365.41H430.34V332.82H250.54V365.41Z" fill="#E6E6E6"/>
<path d="M399.34 342.76H285.08C279.95 342.76 275.08 338.62 271.51 331.3H412.9C409.37 338.62 404.47 342.76 399.34 342.76Z" fill="#E6E6E6"/>
<path d="M141.54 217.18L157.54 230.72C156.73 328.9 160.34 334.22 160.42 351.11H142.12C139.58 268.93 132.39 238.27 141.54 217.18Z" fill="#E0E0E0"/>
<path d="M149.56 380.36C123.81 380.36 102.08 369.91 96.7999 355.78C95.4594 351.887 93.61 348.188 91.2999 344.78L90.8899 344.21H208.23L207.83 344.78C205.52 348.188 203.67 351.887 202.33 355.78C197 369.91 175.32 380.36 149.56 380.36Z" fill="#E6E6E6"/>
<path d="M208.47 347.76H90.6499C89.0497 347.769 87.4923 347.243 86.2244 346.267C84.9565 345.291 84.0505 343.919 83.6499 342.37C83.3683 341.303 83.3366 340.186 83.5574 339.105C83.7781 338.024 84.2454 337.009 84.9227 336.138C85.6 335.267 86.4692 334.564 87.4626 334.084C88.4559 333.604 89.5467 333.36 90.6499 333.37H208.47C209.569 333.367 210.654 333.617 211.641 334.101C212.628 334.584 213.491 335.288 214.162 336.158C214.834 337.027 215.297 338.04 215.515 339.117C215.733 340.194 215.7 341.307 215.42 342.37C215.025 343.913 214.127 345.28 212.868 346.256C211.61 347.232 210.062 347.761 208.47 347.76Z" fill="#F5F5F5"/>
<path d="M151 252C153.39 226.4 168.6 225.55 205.66 250.05C190.31 311.46 142 348.26 151 252Z" fill="#E0E0E0"/>
<path d="M145.48 213.55C141.12 191.38 162.77 160.92 200.11 172.33C202.56 230.86 161.89 297.09 145.48 213.55Z" fill="#E0E0E0"/>
<path d="M165.06 209.89C170.59 182.14 136.59 134.55 102.11 140.78C76.5701 181.83 139.35 338.76 165.06 209.89Z" fill="#E0E0E0"/>
<path d="M151.34 252.21C138.47 213.52 99.1901 202.43 74.0701 246.35C112.68 317.24 182.36 345.45 151.34 252.21Z" fill="#E0E0E0"/>
<path d="M281.12 75.7899V226.46H416.12V75.7899H281.12Z" fill="#EBEBEB"/>
<path d="M279.89 75.79V226.46H281.11V75.79H279.89Z" fill="#E0E0E0"/>
<path d="M406.11 85.79H291.11V216.46H406.11V85.79Z" fill="#F5F5F5"/>
<path d="M333.02 82.12H300.63V127.45H333.02V82.12Z" fill="white"/>
<path d="M371.76 82.13H339.38L337.05 127.46H369.43L371.76 82.13Z" fill="white"/>
<path d="M332.46 134.08H300.07L297.74 179.42H330.13L332.46 134.08Z" fill="white"/>
<path d="M409.601 82.8463L377.252 81.4282L375.267 126.715L407.616 128.133L409.601 82.8463Z" fill="white"/>
<path d="M375.044 143.546L342.678 144.484L343.991 189.795L376.358 188.857L375.044 143.546Z" fill="white"/>
<path d="M56.13 88.46H212C212.841 88.46 213.647 88.126 214.242 87.5316C214.836 86.9371 215.17 86.1308 215.17 85.29C215.17 84.8742 215.088 84.4625 214.929 84.0784C214.769 83.6944 214.535 83.3456 214.241 83.052C213.946 82.7585 213.597 82.5259 213.212 82.3677C212.828 82.2095 212.416 82.1287 212 82.13H56.13C55.2971 82.1379 54.5011 82.4743 53.9149 83.0661C53.3288 83.6579 53 84.4571 53 85.29C52.9999 86.1239 53.3284 86.9242 53.9143 87.5175C54.5002 88.1109 55.2962 88.4495 56.13 88.46Z" fill="#E0E0E0"/>
<path d="M56.13 101.88H212C212.841 101.88 213.647 101.546 214.242 100.952C214.836 100.357 215.17 99.5508 215.17 98.71C215.17 97.8693 214.836 97.063 214.242 96.4685C213.647 95.874 212.841 95.54 212 95.54H56.13C55.2962 95.5506 54.5002 95.8892 53.9143 96.4825C53.3284 97.0759 52.9999 97.8762 53 98.71C52.9999 99.5439 53.3284 100.344 53.9143 100.938C54.5002 101.531 55.2962 101.87 56.13 101.88Z" fill="#E0E0E0"/>
<path d="M212.01 108.96H56.13C54.3792 108.96 52.96 110.377 52.96 112.125C52.96 113.873 54.3792 115.29 56.13 115.29H212.01C213.761 115.29 215.18 113.873 215.18 112.125C215.18 110.377 213.761 108.96 212.01 108.96Z" fill="#E0E0E0"/>
<path d="M68.91 88.46H224.8C225.219 88.4653 225.635 88.3872 226.024 88.2301C226.413 88.0731 226.766 87.8403 227.064 87.5452C227.362 87.2502 227.598 86.8989 227.759 86.5117C227.919 86.1245 228.001 85.7092 228 85.29C228.001 84.8747 227.92 84.4632 227.762 84.0792C227.604 83.6952 227.371 83.3463 227.077 83.0526C226.784 82.7589 226.435 82.5262 226.051 82.3679C225.667 82.2095 225.255 82.1287 224.84 82.13H68.91C68.4942 82.1287 68.0822 82.2095 67.6976 82.3677C67.3131 82.5259 66.9636 82.7585 66.6691 83.052C66.3746 83.3456 66.1409 83.6944 65.9815 84.0784C65.8221 84.4625 65.74 84.8742 65.74 85.29C65.74 86.1308 66.074 86.9371 66.6685 87.5316C67.263 88.126 68.0693 88.46 68.91 88.46Z" fill="#F5F5F5"/>
<path d="M68.91 101.88H224.8C225.219 101.885 225.635 101.807 226.024 101.65C226.413 101.493 226.766 101.26 227.064 100.965C227.362 100.67 227.598 100.319 227.759 99.9317C227.919 99.5445 228.001 99.1292 228 98.71C228.001 98.2942 227.921 97.8822 227.762 97.4977C227.604 97.1131 227.372 96.7636 227.078 96.4691C226.784 96.1746 226.436 95.941 226.052 95.7815C225.668 95.6221 225.256 95.54 224.84 95.54H68.91C68.0693 95.54 67.263 95.874 66.6685 96.4685C66.074 97.063 65.74 97.8693 65.74 98.71C65.74 99.5508 66.074 100.357 66.6685 100.952C67.263 101.546 68.0693 101.88 68.91 101.88Z" fill="#F5F5F5"/>
<path d="M224.79 108.96H68.91C67.1593 108.96 65.74 110.377 65.74 112.125C65.74 113.873 67.1593 115.29 68.91 115.29H224.79C226.541 115.29 227.96 113.873 227.96 112.125C227.96 110.377 226.541 108.96 224.79 108.96Z" fill="#F5F5F5"/>
<path d="M250 427.56C357.083 427.56 443.89 422.492 443.89 416.24C443.89 409.988 357.083 404.92 250 404.92C142.918 404.92 56.1101 409.988 56.1101 416.24C56.1101 422.492 142.918 427.56 250 427.56Z" fill="#F5F5F5"/>
<path d="M390.77 131.44C388.83 131.03 386.34 128.28 386.06 123.61C385.72 117.61 392.21 117.27 395.35 118.7C398.49 120.13 396.75 128.13 390.77 131.44Z" fill="#263238"/>
<path d="M440.01 393.13L432.54 395.66L425.56 378.5L433.02 375.97L440.01 393.13Z" fill="#FFC3BD"/>
<path d="M431.36 395.09L440.45 392.01C440.592 391.956 440.75 391.957 440.891 392.015C441.032 392.072 441.146 392.182 441.21 392.32L444.31 398.77C444.382 398.935 444.419 399.114 444.419 399.294C444.419 399.475 444.381 399.653 444.309 399.818C444.237 399.983 444.131 400.132 443.999 400.254C443.866 400.377 443.71 400.471 443.54 400.53C440.6 401.47 438.42 402.02 434.74 403.27C432.47 404.04 427.94 405.69 424.81 406.75C421.68 407.81 420.51 404.75 421.72 403.98C427.17 400.71 428.82 398.34 430.26 395.98C430.512 395.565 430.901 395.25 431.36 395.09Z" fill="#263238"/>
<path opacity="0.2" d="M433.02 375.97L425.56 378.5L429.16 387.35L436.63 384.82L433.02 375.97Z" fill="black"/>
<path d="M392.73 160.33H398.73C396.73 162.03 396.91 207.75 398.6 229.7C393.81 230 385.03 228.33 385.03 228.33C385.03 228.33 384.19 194.11 392.73 160.33Z" fill="#FFBD59"/>
<path opacity="0.4" d="M392.73 160.33H398.73C396.73 162.03 396.91 207.75 398.6 229.7C393.81 230 385.03 228.33 385.03 228.33C385.03 228.33 384.19 194.11 392.73 160.33Z" fill="black"/>
<path d="M389.54 408.14H381.6L380.41 389.76H388.34L389.54 408.14Z" fill="#FFC3BD"/>
<path opacity="0.2" d="M388.34 389.77H380.41L381.03 399.24H388.96L388.34 389.77Z" fill="black"/>
<path d="M376.54 396L390.7 395.88C390.7 395.88 388.32 344.15 389.82 319.52C390.28 312.02 390.19 301.63 392.3 290.45C394.98 276.36 398.41 261.11 401.24 249.18C404.24 236.6 402.66 227.7 402.66 227.7L374.77 226.05C374.77 226.05 367.56 292.05 367.55 316.23C367.53 341.44 376.54 396 376.54 396Z" fill="#263238"/>
<path d="M380.65 407.22H390.32C390.474 407.214 390.624 407.266 390.741 407.366C390.858 407.467 390.933 407.607 390.95 407.76L391.85 414.81C391.865 414.99 391.843 415.171 391.785 415.341C391.726 415.512 391.633 415.669 391.51 415.801C391.388 415.934 391.24 416.04 391.074 416.112C390.909 416.184 390.73 416.221 390.55 416.22C387.44 416.17 385.19 415.99 381.27 415.99C378.86 415.99 370.15 416.24 366.82 416.24C363.49 416.24 363.37 412.95 364.76 412.65C371 411.31 377.19 409.47 379.32 407.71C379.691 407.395 380.163 407.221 380.65 407.22Z" fill="#263238"/>
<path d="M375.41 397.72H393.63L393.52 392.61L374.45 392.28L375.41 397.72Z" fill="#FFBD59"/>
<path d="M377.89 408.6C377.365 408.646 376.841 408.504 376.41 408.2C376.273 408.077 376.172 407.919 376.119 407.742C376.066 407.566 376.063 407.378 376.11 407.2C376.121 407.087 376.161 406.979 376.226 406.887C376.29 406.794 376.378 406.719 376.48 406.67C377.4 406.21 379.81 407.79 380.09 407.97C380.119 407.991 380.14 408.021 380.151 408.055C380.161 408.089 380.161 408.126 380.15 408.16C380.139 408.195 380.119 408.227 380.093 408.253C380.067 408.279 380.035 408.299 380 408.31C379.309 408.482 378.602 408.579 377.89 408.6ZM376.89 406.96C376.804 406.959 376.719 406.976 376.64 407.01C376.601 407.033 376.567 407.064 376.543 407.103C376.518 407.141 376.504 407.185 376.5 407.23C376.472 407.35 376.474 407.476 376.507 407.595C376.54 407.713 376.603 407.822 376.69 407.91C377.09 408.28 378.13 408.33 379.5 408.06C378.706 407.529 377.81 407.168 376.87 407L376.89 406.96Z" fill="#FFBD59"/>
<path d="M380 408.33C379.974 408.34 379.946 408.34 379.92 408.33C379.14 407.89 377.71 406.15 377.97 405.26C378.012 405.122 378.096 405 378.211 404.912C378.326 404.824 378.465 404.774 378.61 404.77C378.749 404.753 378.891 404.765 379.025 404.807C379.16 404.848 379.284 404.917 379.39 405.01C380.24 405.77 380.21 408.01 380.21 408.15C380.21 408.185 380.201 408.219 380.184 408.249C380.166 408.279 380.14 408.304 380.11 408.32C380.075 408.335 380.037 408.339 380 408.33ZM378.71 405.11H378.62C378.37 405.11 378.34 405.26 378.33 405.3C378.18 405.83 379.07 407.14 379.82 407.76C379.857 406.877 379.612 406.005 379.12 405.27C379.059 405.212 378.986 405.168 378.907 405.14C378.828 405.113 378.744 405.102 378.66 405.11H378.71Z" fill="#FFBD59"/>
<path opacity="0.2" d="M392.3 290.49C394.98 276.4 398.41 261.15 401.24 249.22L398.15 243C391.52 251.3 390.51 276.71 392.3 290.49Z" fill="black"/>
<path d="M389.82 227C389.82 227 398.95 294.89 403.06 317.86C407.57 343.01 424.9 386.86 424.9 386.86L438.57 382.22C438.57 382.22 427.8 345.84 424.02 321.22C419.71 293.22 417.19 228.6 417.19 228.6L389.82 227Z" fill="#263238"/>
<path d="M423.4 387.69L440.54 381.88L438.8 377.03L420.76 382.8L423.4 387.69Z" fill="#FFBD59"/>
<path d="M429.21 397.29C428.728 397.505 428.184 397.537 427.68 397.38C427.512 397.307 427.366 397.189 427.261 397.039C427.155 396.889 427.092 396.713 427.08 396.53C427.056 396.418 427.06 396.302 427.092 396.193C427.123 396.083 427.181 395.982 427.26 395.9C427.98 395.18 430.75 395.9 431.07 396C431.106 396.007 431.138 396.028 431.16 396.057C431.183 396.087 431.193 396.123 431.19 396.16C431.193 396.198 431.185 396.236 431.168 396.27C431.15 396.303 431.123 396.331 431.09 396.35C430.503 396.737 429.871 397.052 429.21 397.29ZM427.72 396.05C427.636 396.073 427.56 396.118 427.5 396.18C427.469 396.213 427.447 396.253 427.437 396.297C427.426 396.341 427.427 396.387 427.44 396.43C427.449 396.555 427.49 396.675 427.561 396.779C427.631 396.882 427.727 396.966 427.84 397.02C428.33 397.24 429.32 396.96 430.52 396.26C429.611 395.999 428.658 395.928 427.72 396.05Z" fill="#FFBD59"/>
<path d="M431.05 396.37H431C430.13 396.19 428.24 394.98 428.19 394.06C428.185 393.914 428.225 393.77 428.306 393.648C428.386 393.526 428.503 393.432 428.64 393.38C428.767 393.324 428.905 393.294 429.045 393.294C429.184 393.294 429.322 393.324 429.45 393.38C430.45 393.83 431.19 396.03 431.22 396.12C431.237 396.151 431.245 396.185 431.245 396.22C431.245 396.255 431.237 396.289 431.22 396.32C431.201 396.345 431.174 396.364 431.143 396.373C431.113 396.382 431.08 396.381 431.05 396.37ZM428.81 393.71H428.73C428.51 393.82 428.51 393.94 428.51 393.99C428.51 394.53 429.79 395.51 430.7 395.86C430.46 395.23 429.92 393.99 429.25 393.71C429.18 393.681 429.105 393.666 429.03 393.666C428.954 393.666 428.88 393.681 428.81 393.71Z" fill="#FFBD59"/>
<path d="M382.55 169.72C379.03 174.2 375.41 178.37 371.55 182.49C367.674 186.647 363.564 190.58 359.24 194.27C358.1 195.19 356.99 196.12 355.76 197C354.344 198.118 352.787 199.046 351.13 199.76C347.743 201.077 344.062 201.45 340.48 200.84C337.348 200.336 334.312 199.351 331.48 197.92C330.136 197.261 328.833 196.52 327.58 195.7C326.332 194.875 325.136 193.974 324 193L327.26 188C331.84 189.88 337.03 191.38 341.36 191.35C343.246 191.406 345.115 190.968 346.78 190.08C347.577 189.58 348.324 189.004 349.01 188.36C349.96 187.57 350.89 186.67 351.82 185.81C353.69 184.02 355.54 182.18 357.34 180.23C359.14 178.28 360.95 176.34 362.72 174.34C366.25 170.34 369.79 166.23 373.15 162.18L382.55 169.72Z" fill="#FFC3BD"/>
<path d="M381.65 175.91C378.503 179.492 375.061 182.804 371.36 185.81L368.71 183.35L359.25 174.58C361.871 169.589 365.39 165.125 369.63 161.41C377.07 154.78 385.89 156.89 386.9 165.17C387.28 168.25 384.76 172.25 381.65 175.91Z" fill="#FFBD59"/>
<path opacity="0.2" d="M381.65 175.91C378.503 179.492 375.061 182.804 371.36 185.81L368.71 183.35C371.21 178.15 380 169 381.65 175.91Z" fill="black"/>
<path d="M371.64 237.78C375.4 239.36 381.15 240.41 386.06 238.89C385.73 231.46 385.84 189.56 393.24 160.29H397.62C395.62 161.92 389.52 216.67 391.52 239.45C399.91 241.2 416.4 239.86 419 237.29C418.67 233.71 416.86 215.83 417.11 203.35C417.22 198.03 417.46 192.16 418.01 186C418.743 177.191 420.141 168.449 422.19 159.85C422.19 159.85 417.19 158.52 411.46 157.66C410.33 157.49 409.18 157.34 408.05 157.22C402.075 156.52 396.066 156.162 390.05 156.15C389.31 156.15 388.58 156.21 387.87 156.26C384.485 156.506 381.119 156.96 377.79 157.62C377.79 157.62 367.08 193.61 371.64 237.78Z" fill="#FFBD59"/>
<path opacity="0.2" d="M416.22 172.26C414.13 178.59 414.22 187.36 417.22 191.49C417.34 191.66 417.47 191.82 417.59 191.96C417.71 190.02 417.86 188.047 418.04 186.04C418.31 182.97 418.66 179.82 419.09 176.63L416.22 172.26Z" fill="black"/>
<path d="M407 136.87C405.65 142.6 404.13 153.15 408 157.26C406.131 159.019 403.902 160.35 401.467 161.162C399.032 161.973 396.45 162.246 393.9 161.96C388.9 161.55 388.79 158.05 389.97 156.19C396.5 155.03 396.51 150.19 395.54 145.66L407 136.87Z" fill="#FFC3BD"/>
<path opacity="0.2" d="M402.34 140.46L395.59 145.65C395.828 146.712 395.975 147.793 396.03 148.88C398.51 148.67 402.03 146.16 402.36 143.59C402.545 142.554 402.538 141.493 402.34 140.46Z" fill="black"/>
<path d="M408 127.32C407.33 135.18 407.33 139.81 403.28 143.67C397.18 149.47 387.6 145.41 385.92 137.47C384.41 130.31 385.76 118.67 393.51 115.9C395.246 115.311 397.101 115.165 398.908 115.475C400.715 115.785 402.415 116.542 403.855 117.677C405.294 118.812 406.428 120.288 407.152 121.972C407.876 123.656 408.167 125.495 408 127.32Z" fill="#FFC3BD"/>
<path d="M407.55 132.28C405.61 131.88 403.11 129.12 402.84 124.45C402.49 118.45 408.99 118.11 412.12 119.54C415.25 120.97 413.52 129 407.55 132.28Z" fill="#263238"/>
<path d="M403.87 121.94C400.27 123.36 386.26 122.85 384.06 119.26C381.86 115.67 411 119.13 403.87 121.94Z" fill="#263238"/>
<path d="M405.29 121C401.59 122.1 387.67 120.4 385.79 116.64C383.91 112.88 412.65 118.75 405.29 121Z" fill="#263238"/>
<path d="M407.16 120.42C403.38 121.18 389.67 118.23 388.16 114.31C386.65 110.39 414.69 118.9 407.16 120.42Z" fill="#263238"/>
<path d="M409.6 120.8C405.77 121.28 392.15 116.15 390.91 112.13C389.67 108.11 417.22 119.85 409.6 120.8Z" fill="#263238"/>
<path d="M411.09 120C407.23 120.09 394.25 114.78 393.42 110.66C392.59 106.54 418.77 119.78 411.09 120Z" fill="#263238"/>
<path d="M411.53 119.93C408.35 119.32 396.97 112.44 397.32 108.93C397.71 105 417.92 121.15 411.53 119.93Z" fill="#263238"/>
<path d="M411.27 133.48C411.035 134.423 410.614 135.309 410.03 136.086C409.445 136.862 408.711 137.513 407.87 138C405.61 139.29 403.78 137.41 403.87 134.94C403.87 132.71 405.15 129.36 407.7 129.08C408.256 129.034 408.816 129.124 409.329 129.343C409.843 129.563 410.295 129.904 410.647 130.337C410.999 130.771 411.239 131.284 411.348 131.831C411.457 132.379 411.43 132.945 411.27 133.48Z" fill="#FFC3BD"/>
<path d="M396 129C396 129.64 395.63 130.14 395.21 130.13C394.79 130.12 394.47 129.57 394.49 128.93C394.51 128.29 394.85 127.78 395.27 127.8C395.69 127.82 396 128.33 396 129Z" fill="#263238"/>
<path d="M388.82 128.63C388.82 129.27 388.45 129.78 388.03 129.76C387.61 129.74 387.29 129.2 387.31 128.56C387.33 127.92 387.67 127.42 388.09 127.44C388.51 127.46 388.83 128 388.82 128.63Z" fill="#263238"/>
<path d="M391.1 129.06C390.294 130.979 389.223 132.777 387.92 134.4C388.339 134.729 388.824 134.963 389.341 135.088C389.859 135.212 390.398 135.223 390.92 135.12L391.1 129.06Z" fill="#FF5652"/>
<path d="M393.6 137C393.324 137.02 393.046 137.02 392.77 137C392.745 137 392.721 136.995 392.699 136.985C392.676 136.976 392.656 136.962 392.639 136.944C392.622 136.926 392.609 136.905 392.601 136.882C392.592 136.859 392.589 136.834 392.59 136.81C392.59 136.785 392.595 136.761 392.604 136.739C392.614 136.716 392.628 136.696 392.646 136.679C392.664 136.662 392.685 136.649 392.708 136.641C392.731 136.632 392.755 136.629 392.78 136.63C393.568 136.686 394.359 136.552 395.085 136.239C395.81 135.926 396.45 135.442 396.95 134.83C396.985 134.797 397.032 134.779 397.08 134.779C397.128 134.779 397.175 134.797 397.21 134.83C397.249 134.862 397.276 134.906 397.285 134.956C397.294 135.005 397.285 135.056 397.26 135.1C396.811 135.649 396.255 136.101 395.626 136.428C394.997 136.754 394.307 136.949 393.6 137Z" fill="#263238"/>
<path d="M398.31 126.73C398.243 126.737 398.175 126.726 398.113 126.698C398.052 126.67 397.999 126.625 397.96 126.57C397.702 126.17 397.352 125.837 396.94 125.599C396.528 125.361 396.065 125.224 395.59 125.2C395.49 125.2 395.394 125.162 395.321 125.093C395.248 125.024 395.205 124.93 395.2 124.83C395.197 124.781 395.205 124.732 395.221 124.686C395.238 124.64 395.264 124.598 395.298 124.562C395.332 124.527 395.372 124.499 395.417 124.479C395.462 124.46 395.511 124.45 395.56 124.45C396.158 124.475 396.742 124.641 397.263 124.935C397.784 125.228 398.229 125.642 398.56 126.14C398.617 126.222 398.64 126.322 398.625 126.421C398.611 126.52 398.559 126.609 398.48 126.67C398.43 126.706 398.371 126.727 398.31 126.73Z" fill="#263238"/>
<path d="M385.77 126C385.702 126.024 385.628 126.024 385.56 126C385.515 125.978 385.475 125.947 385.443 125.909C385.41 125.871 385.386 125.827 385.371 125.779C385.356 125.732 385.351 125.681 385.356 125.632C385.361 125.582 385.376 125.534 385.4 125.49C385.659 124.959 386.044 124.499 386.522 124.15C386.999 123.802 387.555 123.575 388.14 123.49C388.24 123.484 388.339 123.518 388.415 123.583C388.491 123.648 388.54 123.74 388.55 123.84C388.555 123.889 388.551 123.938 388.538 123.985C388.524 124.032 388.501 124.076 388.47 124.114C388.44 124.152 388.402 124.184 388.359 124.207C388.316 124.23 388.269 124.245 388.22 124.25C387.756 124.318 387.315 124.499 386.939 124.778C386.562 125.057 386.26 125.426 386.06 125.85C386.026 125.896 385.983 125.933 385.932 125.959C385.882 125.985 385.826 125.999 385.77 126Z" fill="#263238"/>
<path d="M426.7 165.16C427.93 167.93 428.89 170.57 429.88 173.3C430.87 176.03 431.72 178.78 432.52 181.58C434.192 187.284 435.301 193.139 435.83 199.06L435.94 201.4V202.07V202.99C435.94 203.59 435.81 204.1 435.73 204.64C435.357 206.416 434.766 208.139 433.97 209.77C432.626 212.539 431.022 215.174 429.18 217.64C425.73 222.304 421.854 226.636 417.6 230.58L413.07 226.7C415.98 222.11 418.89 217.38 421.37 212.7C422.572 210.485 423.611 208.186 424.48 205.82C424.807 204.891 425.032 203.928 425.15 202.95C425.15 202.8 425.15 202.62 425.15 202.52C425.146 202.48 425.146 202.44 425.15 202.4V202.25V202.02L424.92 200.19C424.053 195.034 422.789 189.952 421.14 184.99C420.34 182.44 419.45 179.89 418.55 177.35C417.65 174.81 416.65 172.24 415.72 169.87L426.7 165.16Z" fill="#FFC3BD"/>
<path d="M424.55 161.05C430.96 165.24 433.93 182.31 433.93 182.31L418.83 188.83C415.241 183.834 412.729 178.147 411.45 172.13C409.31 161.26 418 156.75 424.55 161.05Z" fill="#FFBD59"/>
<path d="M416.9 225.54L407.59 225.18L412.49 234.18C412.49 234.18 419.24 232.32 418.57 228.63L416.9 225.54Z" fill="#FFC3BD"/>
<path d="M402.63 229.48L407.02 236.7L412.49 234.14L407.59 225.18L402.63 229.48Z" fill="#FFC3BD"/>
<path d="M327.59 188.3L320.69 183.98L319.54 193.98C319.54 193.98 326.2 196.37 327.78 192.98L327.59 188.3Z" fill="#FFC3BD"/>
<path d="M313.89 185.42L311.98 192.92L319.54 194.02L320.69 183.98L313.89 185.42Z" fill="#FFC3BD"/>
<path d="M261.82 134.38C256.06 140.47 247.43 156.28 254.05 161.83C256.356 162.824 258.837 163.35 261.348 163.38C263.859 163.409 266.351 162.94 268.68 162L267.13 139.17C267.13 139.17 266.32 130.38 261.82 134.38Z" fill="#263238"/>
<path d="M257.23 186.72C256.446 189.845 255.505 192.929 254.41 195.96C253.33 198.96 252.09 201.91 250.73 204.82C249.375 207.762 247.822 210.609 246.08 213.34C245.2 214.72 244.25 216.07 243.25 217.4C242.75 218.06 242.25 218.72 241.69 219.4C241.42 219.72 241.13 220.03 240.85 220.35L240.43 220.83C240.151 221.135 239.85 221.419 239.53 221.68C238.798 222.261 237.954 222.683 237.05 222.92C236.227 223.125 235.373 223.183 234.53 223.09C233.294 222.939 232.099 222.552 231.01 221.95C229.394 221.049 227.899 219.947 226.56 218.67C224.193 216.432 222.009 214.007 220.03 211.42C216.214 206.433 212.765 201.176 209.71 195.69L213.36 193.32C215.22 195.67 217.13 198.07 219.08 200.38C221.03 202.69 222.99 204.99 225.08 207.15C227.023 209.298 229.119 211.303 231.35 213.15C232.292 213.939 233.326 214.61 234.43 215.15C234.697 215.286 234.99 215.364 235.29 215.38C235.29 215.38 235.23 215.38 235.06 215.38C234.897 215.417 234.741 215.481 234.6 215.57C234.586 215.592 234.565 215.61 234.54 215.62L234.86 215.21C235.08 214.94 235.3 214.68 235.51 214.4C235.93 213.84 236.34 213.28 236.74 212.69C237.53 211.53 238.29 210.33 239 209.07C240.42 206.58 241.69 203.95 242.89 201.28C244.09 198.61 245.13 195.84 246.11 193.05C247.09 190.26 247.99 187.37 248.74 184.68L257.23 186.72Z" fill="#FF8B7B"/>
<path d="M263.5 188.94C262.57 191.55 259.41 196.23 256.93 199.69C255.12 202.19 253.68 204.05 253.68 204.05L252.25 203.05L240.41 195C242.64 188.23 245.6 181 253.86 179C259.06 177.76 265.16 184.28 263.5 188.94Z" fill="#FFBD59"/>
<g opacity="0.5">
<path opacity="0.5" d="M263.5 188.94C262.57 191.55 259.41 196.23 256.93 199.69C255.12 202.19 253.68 204.05 253.68 204.05L252.25 203.05L240.41 195C242.64 188.23 245.6 181 253.86 179C259.06 177.76 265.16 184.28 263.5 188.94Z" fill="white"/>
</g>
<path opacity="0.3" d="M256.93 199.69C255.12 202.19 253.68 204.05 253.68 204.05L252.25 203.05C252.96 200.35 254.25 196.12 256.13 194.44C256.767 196.113 257.04 197.903 256.93 199.69Z" fill="black"/>
<path d="M214.15 195.16L214.54 187.72L205.64 188.96C205.64 188.96 208.15 194.67 210.8 197.06L214.15 195.16Z" fill="#FF8B7B"/>
<path d="M211.66 184.62L205.22 186.77L205.64 188.96L214.54 187.72L211.66 184.62Z" fill="#FF8B7B"/>
<path d="M285.7 407.92L277.27 408.74L271.66 388.97L280.09 388.16L285.7 407.92Z" fill="#FF8B7B"/>
<path d="M346.54 388.91L338.73 392.5L327.9 375.57L335.71 371.98L346.54 388.91Z" fill="#FF8B7B"/>
<path d="M336.4 389.87L345 385.4C345.147 385.323 345.317 385.302 345.479 385.341C345.641 385.379 345.783 385.475 345.88 385.61L350.39 391.87C350.497 392.033 350.569 392.216 350.601 392.408C350.633 392.6 350.624 392.797 350.575 392.986C350.526 393.174 350.438 393.351 350.317 393.503C350.195 393.655 350.043 393.78 349.87 393.87C346.87 395.37 345.33 395.95 341.56 397.87C339.25 399.08 334.3 402.1 331.1 403.76C327.9 405.42 326.1 402.36 327.26 401.38C332.57 396.98 334.26 393.7 335.4 390.96C335.605 390.497 335.957 390.114 336.4 389.87Z" fill="#263238"/>
<path d="M275.76 406.17H286C286.183 406.172 286.359 406.234 286.504 406.346C286.648 406.458 286.752 406.614 286.8 406.79L289.02 414.86C289.075 415.05 289.084 415.25 289.048 415.445C289.011 415.639 288.929 415.822 288.808 415.979C288.687 416.136 288.531 416.262 288.353 416.347C288.174 416.433 287.978 416.475 287.78 416.47C284.18 416.47 282.48 416.47 277.99 416.47H264.24C260.52 416.47 259.74 412.7 261.24 412.36C268.15 410.83 272.14 408.72 274.24 406.71C274.444 406.523 274.684 406.379 274.945 406.286C275.206 406.193 275.483 406.154 275.76 406.17Z" fill="#263238"/>
<path opacity="0.2" d="M271.66 388.97L274.56 399.16H283.22L280.1 388.16L271.66 388.97Z" fill="black"/>
<path opacity="0.2" d="M335.72 371.98L327.9 375.57L333.49 384.3L341.3 380.71L335.72 371.98Z" fill="black"/>
<path d="M297.1 226.13L262.47 230.56C247.91 181.56 251.57 179.78 251.57 179.78C251.57 179.78 257.35 177.78 263.25 176.24C264.14 176.01 265.04 175.79 265.92 175.59C271.11 174.554 276.366 173.886 281.65 173.59L283.98 173.44C288.19 173.255 292.408 173.322 296.61 173.64C295.97 179.95 295.51 185.29 295.22 189.96C294.83 196.04 294.71 200.96 294.8 205.22C295.011 212.24 295.78 219.232 297.1 226.13Z" fill="#FFBD59"/>
<g opacity="0.5">
<path opacity="0.5" d="M297.1 226.13L262.47 230.56C247.91 181.56 251.57 179.78 251.57 179.78C251.57 179.78 257.35 177.78 263.25 176.24C264.14 176.01 265.04 175.79 265.92 175.59C271.11 174.554 276.366 173.886 281.65 173.59L283.98 173.44C288.19 173.255 292.408 173.322 296.61 173.64C295.97 179.95 295.51 185.29 295.22 189.96C294.83 196.04 294.71 200.96 294.8 205.22C295.011 212.24 295.78 219.232 297.1 226.13Z" fill="white"/>
</g>
<path opacity="0.3" d="M294.8 205.2C292.46 200.2 291.32 189.29 292.8 185.55L295.22 189.94C294.83 196 294.71 200.92 294.8 205.2Z" fill="black"/>
<path d="M277.84 163.1C278.16 167.38 279.17 171.74 281.65 173.57C277.768 174.732 274.164 176.675 271.06 179.28C266.81 177.04 265.93 175.59 265.93 175.59C271.4 173.52 271.02 169.76 268.7 163.72L272.97 161.42C273.338 161.013 273.818 160.723 274.349 160.586C274.881 160.449 275.441 160.472 275.96 160.651C276.479 160.83 276.934 161.157 277.268 161.593C277.602 162.028 277.801 162.552 277.84 163.1Z" fill="#FF8B7B"/>
<path d="M267 172.17C265.49 171.48 262.66 175.22 262.28 176.22C261.9 177.22 263.44 177.53 263.28 178.85C263.12 180.17 264 181.34 266.61 182.37C269.22 183.4 274.39 182.78 276.11 180.22C277.83 177.66 288.55 175.61 287.05 173.06C285.55 170.51 284.39 171.94 283.33 169.39C282.27 166.84 277.78 169.28 276.33 170.61C274.88 171.94 273.36 175.06 267 172.17Z" fill="#FFBD59"/>
<path opacity="0.2" d="M273 161.41C273.345 161.028 273.789 160.749 274.283 160.604C274.777 160.459 275.302 160.454 275.798 160.588C276.295 160.723 276.745 160.992 277.099 161.367C277.452 161.741 277.695 162.206 277.8 162.71C276.18 165.985 273.565 168.663 270.33 170.36C270.216 168.063 269.673 165.808 268.73 163.71L273 161.41Z" fill="black"/>
<path d="M284.48 149.68C282.36 157.95 281.64 161.49 276.59 164.97C268.99 170.2 259.3 165.79 258.91 157.06C258.56 149.2 262.09 137 270.91 135.25C272.855 134.853 274.869 134.959 276.761 135.56C278.653 136.16 280.36 137.234 281.72 138.68C283.079 140.126 284.047 141.896 284.53 143.821C285.013 145.746 284.996 147.763 284.48 149.68Z" fill="#FF8B7B"/>
<path d="M284.88 157.82C284.538 158.562 284.053 159.23 283.453 159.784C282.852 160.339 282.148 160.769 281.38 161.05C279.32 161.8 278.13 159.99 278.57 157.97C278.97 156.15 280.52 153.56 282.65 153.7C283.113 153.739 283.559 153.892 283.949 154.147C284.338 154.401 284.657 154.748 284.878 155.157C285.1 155.566 285.216 156.024 285.216 156.488C285.216 156.953 285.101 157.411 284.88 157.82Z" fill="#FF8B7B"/>
<path d="M263.61 140.19C267.67 139.36 277.42 140.05 278.27 144.04C274.8 147.28 276.47 157.72 272.86 160.78C278.13 165.78 288.58 165.83 288.58 165.83C288.58 165.83 298.91 137.76 286.3 136.39C283.65 129.29 269.3 128.65 261.82 134.39" fill="#263238"/>
<path d="M283 144.43H278C277.825 144.43 277.657 144.36 277.533 144.237C277.409 144.113 277.34 143.945 277.34 143.77C277.342 143.596 277.413 143.429 277.536 143.306C277.659 143.183 277.826 143.113 278 143.11H283C283.175 143.11 283.343 143.18 283.467 143.303C283.59 143.427 283.66 143.595 283.66 143.77C283.661 143.857 283.645 143.943 283.612 144.024C283.58 144.105 283.531 144.178 283.47 144.24C283.408 144.301 283.335 144.35 283.254 144.382C283.173 144.415 283.087 144.431 283 144.43Z" fill="#FFBD59"/>
<path d="M262.47 230.57C262.47 230.57 249.17 297.5 253.6 323.35C257.85 348.13 270.92 396.21 270.92 396.21L285.75 395.83C285.75 395.83 276.44 340.12 276.26 319.41C275.95 285.06 287.83 227.32 287.83 227.32L262.47 230.57Z" fill="#FFBD59"/>
<path d="M269.99 396.98L287.15 396.51L286.09 390.88L267.5 391.83L269.99 396.98Z" fill="#263238"/>
<path opacity="0.3" d="M274.55 238.68L280.48 228.26L287.83 227.32C287.83 227.32 282.42 253.58 279 281.21C274.89 268 273.44 244.76 274.55 238.68Z" fill="black"/>
<path d="M270 229.7C270 229.7 280.51 286.32 289.88 318.65C297.44 344.76 329.18 380.34 329.18 380.34L340.4 374.71C340.4 374.71 319.1 335.29 313.82 317.55C296.93 260.79 310.14 240.16 297.06 226.13L270 229.7Z" fill="#FFBD59"/>
<path d="M329.3 383.8L342.51 376.98L340.53 371.35L325.94 379.45L329.3 383.8Z" fill="#263238"/>
<path d="M297.36 224L299.36 226.9C299.51 227.12 299.26 227.41 298.86 227.46L262.53 232.12C262.22 232.12 261.94 232.04 261.9 231.84L261.19 228.78C261.19 228.57 261.39 228.35 261.73 228.31L296.8 223.81C296.902 223.793 297.006 223.802 297.104 223.835C297.201 223.868 297.289 223.925 297.36 224Z" fill="#FFBD59"/>
<path opacity="0.4" d="M297.36 224L299.36 226.9C299.51 227.12 299.26 227.41 298.86 227.46L262.53 232.12C262.22 232.12 261.94 232.04 261.9 231.84L261.19 228.78C261.19 228.57 261.39 228.35 261.73 228.31L296.8 223.81C296.902 223.793 297.006 223.802 297.104 223.835C297.201 223.868 297.289 223.925 297.36 224Z" fill="white"/>
<path d="M293.15 228.56L294.09 228.43C294.28 228.43 294.41 228.3 294.38 228.18L293.38 224.18C293.38 224.06 293.18 223.99 292.99 224.01L292.05 224.13C291.87 224.13 291.74 224.27 291.76 224.39L292.76 228.39C292.79 228.5 293 228.58 293.15 228.56Z" fill="#263238"/>
<path d="M265.18 232.14L266.12 232.02C266.3 232.02 266.43 231.88 266.41 231.77L265.41 227.77C265.41 227.65 265.2 227.57 265.02 227.6L264.08 227.72C263.89 227.72 263.76 227.86 263.79 227.97L264.79 231.97C264.81 232.09 265 232.17 265.18 232.14Z" fill="#263238"/>
<path d="M279.16 230.35L280.1 230.23C280.29 230.23 280.42 230.09 280.39 229.97L279.44 225.97C279.44 225.86 279.23 225.78 279.05 225.8L278.11 225.92C277.92 225.92 277.79 226.06 277.82 226.18L278.77 230.18C278.8 230.3 279 230.37 279.16 230.35Z" fill="#263238"/>
<path d="M270.32 149.33C270.19 150.01 269.72 150.49 269.32 150.4C268.92 150.31 268.62 149.7 268.75 149.02C268.88 148.34 269.35 147.85 269.75 147.94C270.15 148.03 270.45 148.65 270.32 149.33Z" fill="#263238"/>
<path d="M262.62 147.85C262.49 148.53 262.03 149.01 261.62 148.92C261.21 148.83 260.92 148.22 261.05 147.54C261.18 146.86 261.65 146.37 262.1 146.46C262.55 146.55 262.76 147.16 262.62 147.85Z" fill="#263238"/>
<path d="M262.25 146.53L260.7 145.75C260.7 145.75 261.29 147.19 262.25 146.53Z" fill="#263238"/>
<path d="M264.66 149.37C263.755 150.806 262.658 152.111 261.4 153.25C261.699 153.565 262.064 153.812 262.468 153.972C262.872 154.133 263.306 154.204 263.74 154.18L264.66 149.37Z" fill="#FF5652"/>
<path d="M266.34 157.57C266.307 157.549 266.281 157.519 266.265 157.483C266.249 157.448 266.244 157.408 266.25 157.37C266.26 157.316 266.29 157.268 266.335 157.236C266.38 157.204 266.436 157.191 266.49 157.2C267.333 157.384 268.207 157.366 269.041 157.147C269.876 156.928 270.646 156.514 271.29 155.94C271.329 155.903 271.381 155.882 271.435 155.882C271.489 155.882 271.541 155.903 271.58 155.94C271.599 155.958 271.615 155.979 271.626 156.003C271.636 156.028 271.642 156.054 271.642 156.08C271.642 156.106 271.636 156.132 271.626 156.156C271.615 156.181 271.599 156.202 271.58 156.22C270.892 156.851 270.062 157.306 269.16 157.547C268.258 157.787 267.311 157.805 266.4 157.6C266.377 157.596 266.356 157.586 266.34 157.57Z" fill="#263238"/>
<path d="M273 147.23C272.938 147.192 272.889 147.136 272.86 147.07C272.648 146.605 272.329 146.197 271.929 145.879C271.53 145.561 271.06 145.342 270.56 145.24C270.506 145.235 270.454 145.219 270.407 145.194C270.36 145.168 270.318 145.134 270.284 145.092C270.251 145.05 270.226 145.001 270.211 144.949C270.197 144.898 270.193 144.843 270.2 144.79C270.215 144.684 270.27 144.588 270.353 144.521C270.437 144.454 270.543 144.421 270.65 144.43C271.288 144.543 271.889 144.81 272.401 145.207C272.913 145.605 273.321 146.12 273.59 146.71C273.639 146.807 273.647 146.919 273.613 147.022C273.58 147.125 273.507 147.211 273.41 147.26C273.344 147.29 273.273 147.302 273.201 147.297C273.129 147.292 273.06 147.269 273 147.23Z" fill="#263238"/>
<path d="M259.93 143.83V143.76C259.914 143.709 259.909 143.656 259.915 143.604C259.92 143.551 259.936 143.5 259.961 143.454C259.986 143.407 260.02 143.366 260.061 143.333C260.102 143.3 260.149 143.275 260.2 143.26C260.814 143.055 261.47 143.003 262.109 143.108C262.748 143.212 263.352 143.47 263.87 143.86C263.953 143.93 264.006 144.031 264.015 144.14C264.024 144.248 263.99 144.356 263.92 144.44C263.85 144.524 263.749 144.576 263.64 144.585C263.531 144.595 263.423 144.56 263.34 144.49C262.929 144.186 262.45 143.986 261.945 143.908C261.44 143.83 260.924 143.875 260.44 144.04C260.344 144.072 260.239 144.069 260.146 144.03C260.052 143.992 259.975 143.921 259.93 143.83Z" fill="#263238"/>
<path d="M300.17 182.37C301.31 183.6 302.26 184.72 303.23 185.94C304.2 187.16 305.13 188.35 306.04 189.58C307.83 192.06 309.52 194.58 311.04 197.27C312.622 199.932 314.035 202.691 315.27 205.53C315.6 206.24 315.87 206.98 316.17 207.7C316.47 208.42 316.75 209.15 317 209.9C317.25 210.65 317.51 211.35 317.77 212.18L318.13 213.52L318.39 214.85C318.836 218.179 318.718 221.56 318.04 224.85C317.416 227.92 316.529 230.931 315.39 233.85C314.274 236.688 313.016 239.468 311.62 242.18C310.219 244.867 308.677 247.477 307 250L303.24 247.78C304.42 245.24 305.58 242.55 306.57 239.88C307.604 237.234 308.502 234.538 309.26 231.8C310.016 229.153 310.568 226.452 310.91 223.72C311.061 222.422 311.135 221.117 311.13 219.81C311.106 218.598 310.976 217.39 310.74 216.2L310.54 215.38L310.29 214.6C310.09 214.04 309.79 213.35 309.54 212.74C309.29 212.13 309.01 211.48 308.71 210.85C308.41 210.22 308.15 209.6 307.82 208.99C306.59 206.51 305.14 204.12 303.68 201.73C302.22 199.34 300.58 197.05 298.89 194.8C298.06 193.66 297.2 192.54 296.32 191.44C295.44 190.34 294.52 189.23 293.69 188.28L300.17 182.37Z" fill="#FF8B7B"/>
<path d="M305 245.38L298.1 248.75L305.18 254.28C305.18 254.28 308.25 250.58 308.12 247.01L305 245.38Z" fill="#FF8B7B"/>
<path d="M294.82 255.59L300.84 258.71L305.13 254.28L298.05 248.75L294.82 255.59Z" fill="#FF8B7B"/>
<path d="M296.61 173.62C300.9 174.2 307.38 186.18 307.38 186.18L296.47 196.9C296.47 196.9 288.11 187.37 288.33 181.8C288.53 177.07 291.14 172.89 296.61 173.62Z" fill="#FFBD59"/>
<g opacity="0.5">
<path opacity="0.5" d="M296.61 173.62C300.9 174.2 307.38 186.18 307.38 186.18L296.47 196.9C296.47 196.9 288.11 187.37 288.33 181.8C288.53 177.07 291.14 172.89 296.61 173.62Z" fill="white"/>
</g>
<path d="M333 393C332.954 393.006 332.906 393.006 332.86 393C332.669 392.947 332.495 392.845 332.355 392.705C332.215 392.565 332.113 392.391 332.06 392.2C332.013 392.087 331.996 391.964 332.012 391.843C332.027 391.722 332.075 391.607 332.15 391.51C332.83 390.64 335.93 390.93 336.28 390.96C336.32 390.965 336.358 390.982 336.388 391.009C336.419 391.035 336.44 391.071 336.45 391.11C336.46 391.147 336.46 391.186 336.449 391.223C336.439 391.26 336.418 391.294 336.39 391.32C335.53 392 334 393.1 333 393ZM335.74 391.3C334.5 391.22 332.83 391.3 332.47 391.73C332.444 391.776 332.43 391.827 332.43 391.88C332.43 391.933 332.444 391.984 332.47 392.03C332.501 392.159 332.565 392.278 332.657 392.374C332.748 392.471 332.863 392.542 332.99 392.58C333.5 392.68 334.53 392.21 335.71 391.25L335.74 391.3Z" fill="#FFBD59"/>
<path d="M336 391.27C335 391.12 333 390.27 332.77 389.39C332.723 389.235 332.731 389.069 332.793 388.919C332.855 388.77 332.967 388.646 333.11 388.57C333.235 388.475 333.381 388.411 333.536 388.384C333.69 388.356 333.849 388.365 334 388.41C335.21 388.71 336.37 390.9 336.42 390.99C336.437 391.022 336.447 391.058 336.447 391.095C336.447 391.132 336.437 391.168 336.42 391.2C336.4 391.229 336.373 391.252 336.341 391.268C336.31 391.284 336.275 391.291 336.24 391.29L336 391.27ZM333.82 388.79C333.737 388.776 333.651 388.778 333.569 388.797C333.487 388.816 333.409 388.851 333.34 388.9C333.13 389.05 333.13 389.18 333.16 389.27C333.33 389.85 334.83 390.63 335.86 390.84C335.44 390.13 334.63 388.98 333.86 388.84L333.82 388.79Z" fill="#FFBD59"/>
<path d="M271.23 407.85C270.531 407.901 269.833 407.737 269.23 407.38C269.075 407.263 268.948 407.112 268.86 406.939C268.771 406.766 268.723 406.574 268.72 406.38C268.705 406.273 268.721 406.163 268.765 406.064C268.809 405.965 268.88 405.881 268.97 405.82C269.9 405.2 273.37 406.82 274.06 407.1C274.098 407.117 274.129 407.145 274.148 407.182C274.168 407.218 274.176 407.259 274.17 407.3C274.167 407.343 274.149 407.384 274.12 407.417C274.091 407.449 274.053 407.471 274.01 407.48C273.098 407.697 272.167 407.821 271.23 407.85ZM269.61 406.09C269.471 406.081 269.332 406.112 269.21 406.18C269.181 406.201 269.158 406.23 269.144 406.264C269.13 406.297 269.125 406.334 269.13 406.37C269.133 406.503 269.167 406.634 269.23 406.752C269.292 406.87 269.381 406.972 269.49 407.05C270.09 407.5 271.49 407.56 273.32 407.23C272.15 406.659 270.899 406.274 269.61 406.09Z" fill="#FFBD59"/>
<path d="M274 407.5H273.92C272.77 407.03 270.45 405.17 270.58 404.2C270.58 403.99 270.75 403.73 271.28 403.67C273.28 403.43 274.16 407.11 274.2 407.26C274.209 407.298 274.207 407.338 274.195 407.375C274.183 407.412 274.16 407.445 274.13 407.47C274.091 407.495 274.045 407.505 274 407.5ZM271.46 404.05H271.33C271.11 404.05 271 404.14 270.98 404.24C270.91 404.8 272.51 406.24 273.69 406.91C273.4 406 272.66 404.05 271.44 404.05H271.46Z" fill="#FFBD59"/>
<path d="M269.94 148L268.4 147.22C268.4 147.22 269 148.67 269.94 148Z" fill="#263238"/>
<path d="M116.84 408.01L124.87 407.89L126.71 389.27L118.69 389.39L116.84 408.01Z" fill="#B55B52"/>
<path d="M77.1001 408.04H85.1301L88.2801 389.45H80.2601L77.1001 408.04Z" fill="#B55B52"/>
<path d="M86.24 407.11H76.45C76.291 407.111 76.1371 407.166 76.0135 407.266C75.8899 407.366 75.804 407.505 75.77 407.66L74.18 414.8C74.1439 414.974 74.1474 415.153 74.1903 415.326C74.2332 415.498 74.3143 415.658 74.4277 415.794C74.5411 415.931 74.6838 416.04 74.8452 416.114C75.0067 416.187 75.1826 416.224 75.36 416.22C78.51 416.17 80.8 415.98 84.77 415.98C87.21 415.98 94.57 416.24 97.94 416.24C101.31 416.24 101.75 412.91 100.37 412.6C94.18 411.25 89.52 409.39 87.54 407.6C87.1791 407.287 86.718 407.113 86.24 407.11Z" fill="#263238"/>
<path d="M124.8 407L116.03 407.14C115.872 407.139 115.718 407.194 115.596 407.294C115.474 407.395 115.39 407.535 115.36 407.69L113.88 414.85C113.842 415.023 113.843 415.203 113.886 415.376C113.928 415.549 114.009 415.709 114.123 415.845C114.237 415.982 114.381 416.09 114.543 416.162C114.706 416.234 114.883 416.267 115.06 416.26C118.22 416.16 122.79 415.9 126.76 415.84C131.41 415.77 135.43 415.96 140.87 415.84C144.17 415.79 145.03 412.45 143.65 412.17C137.35 410.89 132.22 410.82 126.74 407.56C126.157 407.199 125.486 407.005 124.8 407Z" fill="#263238"/>
<path d="M130.83 163.56C133.41 168.39 136.14 173.36 138.89 178.17C141.64 182.98 144.51 187.76 147.57 192.17C147.94 192.74 148.34 193.26 148.73 193.79L149.31 194.58L149.57 194.94L149.67 195.08C149.92 195.442 150.266 195.726 150.67 195.9C151.75 196.37 154.03 196.31 156.33 195.76C158.817 195.13 161.243 194.28 163.58 193.22C164.8 192.67 166.04 192.12 167.25 191.5C168.46 190.88 169.7 190.22 170.82 189.62L174.55 194.36C173.41 195.49 172.32 196.44 171.14 197.36C169.96 198.28 168.79 199.25 167.53 200.11C164.949 201.94 162.168 203.469 159.24 204.67C157.625 205.315 155.951 205.797 154.24 206.11C152.213 206.463 150.137 206.433 148.12 206.02C145.746 205.523 143.563 204.357 141.83 202.66C141.61 202.45 141.41 202.23 141.21 202.01L140.8 201.54L140.05 200.66C139.55 200.08 139.05 199.49 138.58 198.9C134.91 194.257 131.53 189.391 128.46 184.33C125.46 179.33 122.6 174.33 119.97 169.02L130.83 163.56Z" fill="#B65B52"/>
<path d="M116.53 163.8C114.36 171.16 129.6 191.23 129.6 191.23L145 181.35C142.109 174.986 138.542 168.951 134.36 163.35C128 155.28 118.9 155.72 116.53 163.8Z" fill="#FFBD59"/>
<path opacity="0.2" d="M116.53 163.8C114.36 171.16 129.6 191.23 129.6 191.23L145 181.35C142.109 174.986 138.542 168.951 134.36 163.35C128 155.28 118.9 155.72 116.53 163.8Z" fill="white"/>
<path opacity="0.2" d="M125.89 172.44C129.05 173.79 133.7 181.44 136.12 187.04L129.6 191.23C125.958 186.36 122.682 181.226 119.8 175.87C121.86 173.61 124.22 171.73 125.89 172.44Z" fill="black"/>
<path d="M170.16 190L175.76 186.67L180.56 195.01C180.56 195.01 174.33 198.66 170.3 194.42L170.16 190Z" fill="#B55B52"/>
<path d="M183.59 186.75L186.1 193.18L180.56 195.01L175.76 186.67L183.59 186.75Z" fill="#B55B52"/>
<path opacity="0.2" d="M126.71 389.27L125.76 398.87L117.73 399L118.68 389.4L126.71 389.27Z" fill="black"/>
<path opacity="0.2" d="M80.2501 389.46H88.2801L86.6501 399.04H78.6201L80.2501 389.46Z" fill="black"/>
<path d="M80.75 160.54C89.39 191 88 223.38 88.52 230L131.42 228.39C138.71 182.94 125.62 157.64 125.62 157.64C125.62 157.64 122.87 157.11 119.13 156.72C117.95 156.6 116.69 156.5 115.37 156.43C114.64 156.43 113.9 156.36 113.15 156.35C107.08 156.442 101.02 156.88 95 157.66C93.85 157.8 92.69 157.98 91.57 158.16C90.45 158.34 89.5 158.53 88.57 158.72C84.12 159.59 80.75 160.54 80.75 160.54Z" fill="#FFBD59"/>
<path opacity="0.2" d="M80.75 160.54C89.39 191 88 223.38 88.52 230L131.42 228.39C138.71 182.94 125.62 157.64 125.62 157.64C125.62 157.64 122.87 157.11 119.13 156.72C117.95 156.6 116.69 156.5 115.37 156.43C114.64 156.43 113.9 156.36 113.15 156.35C107.08 156.442 101.02 156.88 95 157.66C93.85 157.8 92.69 157.98 91.57 158.16C90.45 158.34 89.5 158.53 88.57 158.72C84.12 159.59 80.75 160.54 80.75 160.54Z" fill="white"/>
<path opacity="0.2" d="M89.8802 173.62C90.6502 176.57 89.7702 190.03 86.6902 193.35C86.2702 189.04 85.6902 184.54 84.9702 179.94L89.8802 173.62Z" fill="black"/>
<path d="M115.67 156.41H115.36C114.63 156.41 113.89 156.34 113.14 156.33C107.053 156.434 100.976 156.885 94.9401 157.68C94.0601 157.79 93.1801 157.92 92.3101 158.06L93.6401 159.2C97.5801 162.57 102.17 165.69 108.97 165.69H109.84C113.31 165.55 115.53 164.42 116.46 162.31C116.809 161.335 116.919 160.29 116.781 159.264C116.644 158.238 116.263 157.259 115.67 156.41Z" fill="white"/>
<path d="M95.2302 137C96.8102 142.77 98.7502 153.42 94.9502 157.63C98.3702 160.56 102.8 163.9 109.77 163.63C116.74 163.36 115.17 158.63 113.15 156.28C106.5 155.2 106.31 150.34 107.15 145.71L95.2302 137Z" fill="#B55B52"/>
<path opacity="0.2" d="M100.07 140.59L107.07 145.74C106.87 146.819 106.763 147.913 106.75 149.01C104.23 148.83 100.6 146.35 100.14 143.76C99.9227 142.717 99.899 141.642 100.07 140.59Z" fill="black"/>
<path d="M112.18 131.43C114.46 133.75 118.65 121.1 114.18 118.03C109.71 114.96 101 120 112.18 131.43Z" fill="#263238"/>
<path d="M93.87 128.27C94.95 136.16 95.18 140.84 99.49 144.61C105.97 150.28 115.49 145.92 116.79 137.87C117.96 130.62 116 118.93 108.01 116.35C106.249 115.773 104.37 115.655 102.551 116.008C100.732 116.361 99.0336 117.174 97.6168 118.368C96.2001 119.562 95.1122 121.099 94.4564 122.832C93.8006 124.565 93.5988 126.437 93.87 128.27Z" fill="#B55B52"/>
<path d="M94.9 135.42C97.49 137.42 99.76 124.25 94.9 121.88C90.04 119.51 82.1 125.79 94.9 135.42Z" fill="#263238"/>
<path d="M91.8601 123.67C99.4701 126.28 120.86 123.85 117.08 108.28C115.47 101.56 108.19 107.28 107.69 111C103.97 107.94 97.0601 108.61 97.8701 113.5C93.8601 112.33 78.7001 116 91.8601 123.67Z" fill="#263238"/>
<path d="M90.9401 137.28C91.5338 138.086 92.2814 138.766 93.1397 139.281C93.9979 139.796 94.9498 140.135 95.9401 140.28C98.5701 140.66 99.5401 138.22 98.5201 135.92C97.6001 133.85 95.1301 131.16 92.6301 131.84C90.1301 132.52 89.5001 135.29 90.9401 137.28Z" fill="#B55B52"/>
<path d="M128.74 397L115.15 397.21C115.15 397.21 119.68 343.52 118.46 318.54C118.09 310.94 116.56 300.31 114.55 288.92C112.02 274.56 110.8 268.84 107.55 250.7C105.21 237.76 103.25 229.44 103.25 229.44L131.45 228.38C131.45 228.38 140.14 291.5 139.87 315.99C139.56 341.43 128.74 397 128.74 397Z" fill="#263238"/>
<path opacity="0.2" d="M113 246C118.06 258.6 118.16 288.12 115.83 296.43C115.43 293.97 115 291.43 114.55 288.89C112.01 274.53 110.79 268.81 107.55 250.67C107.49 250.31 107.42 249.96 107.36 249.61C109.018 248.09 110.926 246.869 113 246Z" fill="black"/>
<path d="M116.21 228.92C116.21 228.92 111.09 295.45 107.32 318.67C103.2 344.09 90.3802 397.18 90.3802 397.18H75.6802C75.6802 397.18 80.5302 349.18 83.5402 324.18C86.9602 295.78 88.5402 229.93 88.5402 229.93L116.21 228.92Z" fill="#263238"/>
<path d="M92.1401 397.5H74.8301V392.33L94.1801 391.99L92.1401 397.5Z" fill="#FFBD59"/>
<path opacity="0.5" d="M92.1401 397.5H74.8301V392.33L94.1801 391.99L92.1401 397.5Z" fill="white"/>
<path d="M130.45 397.26L114.26 397.51L114.17 392.28L132.27 391.72L130.45 397.26Z" fill="#FFBD59"/>
<path opacity="0.5" d="M130.45 397.26L114.26 397.51L114.17 392.28L132.27 391.72L130.45 397.26Z" fill="white"/>
<path d="M106.07 129.59C106.07 130.24 106.5 130.74 106.92 130.7C107.34 130.66 107.64 130.12 107.59 129.48C107.54 128.84 107.17 128.34 106.74 128.37C106.31 128.4 106 129 106.07 129.59Z" fill="#263238"/>
<path d="M113.36 129.05C113.36 129.7 113.79 130.19 114.22 130.16C114.65 130.13 114.94 129.58 114.89 128.94C114.84 128.3 114.46 127.79 114.04 127.82C113.62 127.85 113.32 128.4 113.36 129.05Z" fill="#263238"/>
<path d="M111.07 129.54C111.984 131.459 113.159 133.242 114.56 134.84C114.147 135.182 113.666 135.431 113.148 135.569C112.63 135.707 112.088 135.731 111.56 135.64L111.07 129.54Z" fill="#A02724"/>
<path d="M108.93 137.57C108.203 137.54 107.49 137.362 106.834 137.045C106.179 136.729 105.595 136.281 105.12 135.73C105.09 135.689 105.077 135.637 105.084 135.587C105.092 135.536 105.119 135.491 105.16 135.46C105.201 135.43 105.253 135.417 105.303 135.424C105.354 135.432 105.4 135.459 105.43 135.5C105.966 136.102 106.637 136.569 107.388 136.862C108.138 137.156 108.948 137.268 109.75 137.19C109.799 137.187 109.847 137.203 109.884 137.235C109.921 137.267 109.945 137.311 109.95 137.36C109.953 137.386 109.95 137.412 109.943 137.437C109.935 137.461 109.922 137.484 109.905 137.504C109.889 137.524 109.868 137.54 109.845 137.551C109.821 137.562 109.796 137.569 109.77 137.57C109.49 137.59 109.21 137.59 108.93 137.57Z" fill="#263238"/>
<path d="M103.64 127.4C103.575 127.4 103.512 127.379 103.46 127.34C103.376 127.287 103.316 127.202 103.293 127.105C103.271 127.007 103.288 126.905 103.34 126.82C103.659 126.301 104.098 125.866 104.62 125.553C105.142 125.24 105.732 125.057 106.34 125.02C106.441 125.02 106.538 125.06 106.609 125.131C106.68 125.203 106.72 125.299 106.72 125.4C106.72 125.501 106.68 125.597 106.609 125.669C106.538 125.74 106.441 125.78 106.34 125.78C105.863 125.817 105.401 125.969 104.994 126.221C104.587 126.473 104.246 126.819 104 127.23C103.963 127.291 103.91 127.339 103.846 127.369C103.782 127.4 103.71 127.41 103.64 127.4Z" fill="#263238"/>
<path d="M116.32 126.31C116.258 126.305 116.199 126.285 116.147 126.252C116.094 126.219 116.051 126.174 116.02 126.12C115.79 125.701 115.465 125.341 115.071 125.07C114.676 124.799 114.224 124.625 113.75 124.56C113.649 124.56 113.553 124.52 113.481 124.449C113.41 124.377 113.37 124.281 113.37 124.18C113.37 124.079 113.41 123.983 113.481 123.911C113.553 123.84 113.649 123.8 113.75 123.8C114.349 123.869 114.923 124.081 115.424 124.416C115.925 124.752 116.338 125.202 116.63 125.73C116.657 125.773 116.674 125.821 116.681 125.871C116.688 125.921 116.685 125.972 116.672 126.02C116.659 126.069 116.636 126.114 116.605 126.154C116.574 126.193 116.535 126.226 116.49 126.25C116.439 126.283 116.381 126.304 116.32 126.31Z" fill="#263238"/>
<path d="M88.8902 408.52C88.1817 408.5 87.4776 408.403 86.7902 408.23C86.7535 408.22 86.7206 408.2 86.6957 408.171C86.6707 408.143 86.6549 408.108 86.6502 408.07C86.6448 408.033 86.6505 407.995 86.6665 407.961C86.6825 407.928 86.7081 407.899 86.7402 407.88C87.0302 407.7 89.6202 406.11 90.5102 406.56C90.606 406.614 90.686 406.693 90.7422 406.787C90.7983 406.882 90.8287 406.99 90.8302 407.1C90.8523 407.286 90.8282 407.474 90.7602 407.649C90.6922 407.823 90.5823 407.978 90.4402 408.1C89.9841 408.407 89.439 408.555 88.8902 408.52ZM87.3402 408C88.7102 408.27 89.7502 408.22 90.1902 407.85C90.2884 407.769 90.364 407.663 90.4096 407.544C90.4551 407.425 90.4691 407.296 90.4502 407.17C90.4531 407.124 90.4435 407.079 90.4223 407.038C90.4012 406.998 90.3693 406.964 90.3302 406.94C89.8702 406.66 88.4002 407.35 87.3402 408Z" fill="#FFBD59"/>
<path d="M86.84 408.23C86.804 408.24 86.7659 408.24 86.73 408.23C86.7014 408.213 86.6786 408.187 86.6644 408.157C86.6501 408.127 86.6451 408.093 86.65 408.06C86.65 407.96 86.85 405.64 87.78 404.88C87.8893 404.783 88.0185 404.712 88.1584 404.67C88.2983 404.629 88.4456 404.618 88.59 404.64C88.7313 404.64 88.8683 404.688 88.9778 404.777C89.0872 404.867 89.1622 404.991 89.19 405.13C89.36 406.03 87.76 407.79 86.93 408.24L86.84 408.23ZM88.46 405C88.297 404.999 88.1397 405.059 88.02 405.17C87.4407 405.886 87.0921 406.761 87.02 407.68C87.85 407.05 88.87 405.68 88.77 405.2C88.77 405.15 88.77 405.03 88.49 405H88.41H88.46Z" fill="#FFBD59"/>
<path d="M125.6 408.06C125.568 408.046 125.54 408.024 125.519 407.996C125.498 407.968 125.484 407.935 125.48 407.9C125.472 407.863 125.476 407.824 125.492 407.789C125.509 407.755 125.536 407.727 125.57 407.71C125.94 407.51 129.14 405.83 130.12 406.35C130.212 406.401 130.29 406.474 130.346 406.564C130.402 406.653 130.434 406.755 130.44 406.86C130.463 407.031 130.445 407.205 130.385 407.367C130.326 407.529 130.228 407.674 130.1 407.79C129.23 408.58 126.93 408.3 125.63 408.06H125.6ZM129.87 406.66C129.26 406.46 127.52 407.15 126.26 407.78C128.04 408.05 129.36 407.95 129.84 407.51C129.925 407.433 129.99 407.336 130.029 407.228C130.067 407.12 130.078 407.003 130.06 406.89C130.061 406.849 130.05 406.808 130.029 406.773C130.008 406.737 129.977 406.709 129.94 406.69L129.87 406.66Z" fill="#FFBD59"/>
<path d="M125.6 408.06C125.572 408.041 125.549 408.016 125.533 407.986C125.518 407.957 125.51 407.924 125.51 407.89C125.51 407.8 125.7 405.63 126.71 404.78C126.846 404.66 127.004 404.568 127.176 404.51C127.348 404.451 127.529 404.428 127.71 404.44C128.23 404.44 128.39 404.74 128.43 404.96C128.59 405.86 126.7 407.63 125.73 408.08C125.686 408.087 125.64 408.08 125.6 408.06ZM127.88 404.82H127.69C127.551 404.807 127.41 404.823 127.277 404.868C127.145 404.913 127.023 404.985 126.92 405.08C126.338 405.787 125.989 406.657 125.92 407.57C126.92 406.96 128.18 405.57 128.08 405.03C128.06 405 128 404.87 127.88 404.82Z" fill="#FFBD59"/>
<path d="M89.6301 170.85L82.0901 187.28C80.8601 190.03 79.6001 192.76 78.4301 195.52C77.8501 196.89 77.2301 198.26 76.6801 199.63L76.2501 200.63C76.1101 200.98 76.0301 201.22 75.9201 201.51C75.6901 202.07 75.5401 202.69 75.3501 203.28C74.6732 205.837 74.3039 208.466 74.2501 211.11C74.1607 213.935 74.2743 216.762 74.5901 219.57C74.9001 222.43 75.3701 225.32 75.9701 228.2C76.5701 231.08 77.2901 234.02 78.0701 236.75L72.5401 239.15C71.7301 237.65 71.0601 236.26 70.4101 234.78C69.7601 233.3 69.1601 231.85 68.5901 230.35C67.4521 227.334 66.5102 224.248 65.7701 221.11C64.0687 214.503 63.7588 207.614 64.8601 200.88C65.0601 200 65.2301 199.11 65.5101 198.22L65.8901 196.92L66.2601 195.79C66.7401 194.28 67.2601 192.79 67.7601 191.31C68.8201 188.31 69.9001 185.43 71.0701 182.55C73.3801 176.75 75.8901 171.13 78.6901 165.55L89.6301 170.85Z" fill="#B65B52"/>
<path d="M80.75 160.54C73.43 162.84 66.23 187.67 66.23 187.67L83.17 195.08C83.17 195.08 88.65 183.08 91.8 173.68C95.24 163.43 89.62 157.76 80.75 160.54Z" fill="#FFBD59"/>
<path opacity="0.2" d="M80.75 160.54C73.43 162.84 66.23 187.67 66.23 187.67L83.17 195.08C83.17 195.08 88.65 183.08 91.8 173.68C95.24 163.43 89.62 157.76 80.75 160.54Z" fill="white"/>
<path d="M77.6201 235.39L81.5701 242.52L72.2601 244.94C72.2601 244.94 69.4401 238.03 72.7701 235.83L77.6201 235.39Z" fill="#B55B52"/>
<path d="M82.26 250.61L73.71 251.32L72.26 244.94L81.57 242.52L82.26 250.61Z" fill="#B55B52"/>
<path d="M250 282.35C249.927 284.825 248.894 287.175 247.119 288.902C245.344 290.628 242.966 291.596 240.49 291.6H215.33C217.407 294.477 218.649 297.873 218.919 301.411C219.189 304.949 218.477 308.494 216.861 311.653C215.245 314.813 212.788 317.464 209.761 319.316C206.733 321.168 203.254 322.148 199.705 322.148C196.156 322.148 192.676 321.168 189.649 319.316C186.622 317.464 184.165 314.813 182.549 311.653C180.933 308.494 180.221 304.949 180.491 301.411C180.761 297.873 182.003 294.477 184.08 291.6H158.91C156.392 291.595 153.979 290.592 152.198 288.812C150.418 287.031 149.415 284.618 149.41 282.1V200.52C149.415 198.001 150.417 195.587 152.198 193.805C153.978 192.023 156.391 191.018 158.91 191.01H240.49C242.966 191.017 245.342 191.987 247.116 193.716C248.889 195.444 249.92 197.795 249.99 200.27V225.68C247.113 223.609 243.72 222.371 240.185 222.105C236.651 221.838 233.111 222.552 229.955 224.168C226.8 225.784 224.152 228.24 222.303 231.264C220.454 234.289 219.476 237.765 219.476 241.31C219.476 244.855 220.454 248.331 222.303 251.356C224.152 254.38 226.8 256.836 229.955 258.452C233.111 260.068 236.651 260.782 240.185 260.515C243.72 260.249 247.113 259.011 249.99 256.94V282.1C249.988 282.183 249.992 282.267 250 282.35Z" fill="#FFBD59"/>
<path opacity="0.3" d="M199.7 319.21C196.684 319.217 193.725 318.391 191.15 316.821C188.575 315.252 186.484 313.001 185.109 310.318C183.733 307.634 183.127 304.622 183.357 301.615C183.586 298.608 184.643 295.724 186.41 293.28L189.69 288.73H158.91C157.154 288.725 155.472 288.024 154.231 286.782C152.99 285.539 152.292 283.856 152.29 282.1V200.52C152.29 198.762 152.987 197.077 154.228 195.832C155.468 194.587 157.152 193.885 158.91 193.88H240.49C242.215 193.892 243.869 194.571 245.105 195.775C246.341 196.98 247.063 198.615 247.12 200.34V220.63C247.118 220.65 247.112 220.67 247.102 220.687C247.091 220.704 247.077 220.719 247.06 220.73C247.041 220.74 247.021 220.745 247 220.745C246.979 220.745 246.958 220.74 246.94 220.73C244.342 219.688 241.569 219.155 238.77 219.16C235.823 219.097 232.894 219.624 230.154 220.708C227.413 221.792 224.917 223.413 222.811 225.474C220.705 227.536 219.032 229.997 217.89 232.714C216.748 235.431 216.159 238.348 216.159 241.295C216.159 244.242 216.748 247.159 217.89 249.876C219.032 252.593 220.705 255.054 222.811 257.116C224.917 259.177 227.413 260.798 230.154 261.882C232.894 262.966 235.823 263.493 238.77 263.43C241.569 263.438 244.343 262.905 246.94 261.86C246.958 261.85 246.979 261.845 247 261.845C247.021 261.845 247.041 261.85 247.06 261.86C247.077 261.871 247.091 261.886 247.102 261.903C247.112 261.92 247.118 261.94 247.12 261.96V282.36C247.026 284.061 246.289 285.663 245.057 286.84C243.826 288.017 242.193 288.682 240.49 288.7H209.74L212.99 293.24C213.013 293.264 213.026 293.296 213.026 293.33C213.026 293.364 213.013 293.396 212.99 293.42C212.979 293.431 212.965 293.44 212.951 293.446C212.936 293.452 212.921 293.455 212.905 293.455C212.889 293.455 212.873 293.452 212.859 293.446C212.844 293.44 212.831 293.431 212.82 293.42L209.42 288.67C209.407 288.651 209.401 288.628 209.401 288.605C209.401 288.582 209.407 288.559 209.42 288.54C209.432 288.522 209.448 288.506 209.467 288.496C209.486 288.485 209.508 288.48 209.53 288.48H240.53C242.166 288.46 243.734 287.821 244.918 286.691C246.102 285.561 246.814 284.024 246.91 282.39V262.17C244.328 263.178 241.581 263.694 238.81 263.69C235.517 263.695 232.264 262.974 229.283 261.578C226.301 260.182 223.663 258.146 221.558 255.614C219.454 253.082 217.933 250.118 217.105 246.931C216.277 243.745 216.162 240.415 216.768 237.178C217.374 233.942 218.686 230.88 220.611 228.209C222.536 225.538 225.027 223.324 227.905 221.726C230.784 220.127 233.979 219.183 237.264 218.961C240.549 218.739 243.842 219.244 246.91 220.44V200.35C246.856 198.69 246.161 197.115 244.972 195.956C243.783 194.796 242.191 194.142 240.53 194.13H158.91C158.072 194.131 157.243 194.298 156.469 194.619C155.695 194.941 154.993 195.412 154.401 196.006C153.81 196.599 153.341 197.303 153.022 198.078C152.702 198.852 152.538 199.682 152.54 200.52V282.1C152.54 283.79 153.211 285.412 154.405 286.608C155.599 287.804 157.219 288.477 158.91 288.48H189.91C189.932 288.478 189.955 288.482 189.974 288.493C189.994 288.504 190.01 288.52 190.02 288.54C190.032 288.559 190.039 288.582 190.039 288.605C190.039 288.628 190.032 288.651 190.02 288.67L186.6 293.43C184.613 296.162 183.542 299.452 183.54 302.83C183.54 307.111 185.24 311.216 188.267 314.243C191.294 317.27 195.399 318.97 199.68 318.97C203.96 318.97 208.066 317.27 211.092 314.243C214.119 311.216 215.82 307.111 215.82 302.83C215.82 302.798 215.832 302.768 215.855 302.745C215.877 302.723 215.908 302.71 215.94 302.71C215.956 302.709 215.973 302.711 215.989 302.716C216.005 302.722 216.019 302.73 216.031 302.741C216.043 302.753 216.053 302.766 216.06 302.782C216.066 302.797 216.07 302.813 216.07 302.83C216.062 307.17 214.335 311.33 211.267 314.4C208.199 317.47 204.04 319.199 199.7 319.21Z" fill="white"/>
<path d="M341.09 191H315.94C318.01 193.879 319.246 197.273 319.511 200.809C319.776 204.345 319.061 207.885 317.443 211.041C315.826 214.196 313.369 216.844 310.343 218.693C307.318 220.542 303.841 221.52 300.295 221.52C296.749 221.52 293.272 220.542 290.247 218.693C287.221 216.844 284.764 214.196 283.147 211.041C281.529 207.885 280.814 204.345 281.079 200.809C281.344 197.273 282.58 193.879 284.65 191H259.5C256.982 191.008 254.569 192.011 252.788 193.791C251.006 195.57 250.001 197.982 249.99 200.5V225.67C247.113 223.599 243.72 222.361 240.186 222.095C236.651 221.828 233.111 222.542 229.956 224.158C226.8 225.774 224.152 228.23 222.303 231.254C220.454 234.279 219.476 237.755 219.476 241.3C219.476 244.845 220.454 248.321 222.303 251.346C224.152 254.37 226.8 256.826 229.956 258.442C233.111 260.058 236.651 260.772 240.186 260.505C243.72 260.239 247.113 259.001 249.99 256.93V282.1C249.998 284.62 251.002 287.034 252.784 288.816C254.566 290.598 256.98 291.602 259.5 291.61H341.09C343.609 291.602 346.022 290.597 347.802 288.815C349.582 287.033 350.585 284.619 350.59 282.1V200.51C350.585 197.991 349.582 195.577 347.802 193.795C346.022 192.013 343.609 191.008 341.09 191Z" fill="#263238"/>
<path opacity="0.3" d="M341.09 288.73H259.5C257.741 288.73 256.055 288.031 254.812 286.788C253.568 285.545 252.87 283.858 252.87 282.1V251.32L248.32 254.6C245.875 256.363 242.991 257.417 239.986 257.644C236.98 257.872 233.97 257.265 231.288 255.89C228.605 254.515 226.355 252.426 224.785 249.854C223.215 247.281 222.386 244.324 222.39 241.31C222.388 241.293 222.391 241.277 222.396 241.261C222.401 241.245 222.41 241.231 222.421 241.219C222.433 241.206 222.446 241.197 222.461 241.19C222.477 241.183 222.493 241.18 222.51 241.18C222.544 241.18 222.577 241.194 222.602 241.218C222.626 241.242 222.64 241.276 222.64 241.31C222.636 244.278 223.452 247.189 224.998 249.722C226.543 252.255 228.759 254.313 231.4 255.667C234.04 257.021 237.004 257.619 239.963 257.395C242.922 257.172 245.762 256.135 248.17 254.4L252.92 250.98C252.939 250.968 252.961 250.961 252.983 250.96C253.006 250.958 253.028 250.963 253.048 250.973C253.068 250.983 253.086 250.998 253.098 251.017C253.111 251.036 253.118 251.058 253.12 251.08V282.08C253.12 283.772 253.792 285.395 254.988 286.591C256.185 287.788 257.808 288.46 259.5 288.46H341.09C342.782 288.46 344.405 287.788 345.601 286.591C346.798 285.395 347.47 283.772 347.47 282.08V200.51C347.467 198.819 346.794 197.197 345.598 196.002C344.402 194.806 342.781 194.133 341.09 194.13H321.17C322.486 197.523 322.955 201.185 322.536 204.8C322.118 208.415 320.825 211.873 318.769 214.876C316.713 217.879 313.956 220.335 310.737 222.032C307.518 223.729 303.934 224.616 300.295 224.616C296.656 224.616 293.072 223.729 289.853 222.032C286.634 220.335 283.877 217.879 281.821 214.876C279.765 211.873 278.472 208.415 278.053 204.8C277.635 201.185 278.104 197.523 279.42 194.13H259.5C257.809 194.133 256.187 194.806 254.991 196.002C253.795 197.197 253.122 198.819 253.12 200.51V231.51C253.119 231.534 253.112 231.558 253.1 231.579C253.087 231.599 253.07 231.617 253.05 231.63C253.03 231.64 253.007 231.645 252.985 231.645C252.962 231.645 252.94 231.64 252.92 231.63L248.17 228.21C245.437 226.227 242.146 225.159 238.77 225.16C238.738 225.16 238.707 225.147 238.685 225.125C238.662 225.102 238.65 225.072 238.65 225.04C238.648 225.023 238.651 225.007 238.656 224.991C238.661 224.975 238.67 224.961 238.681 224.949C238.693 224.936 238.706 224.927 238.721 224.92C238.737 224.913 238.753 224.91 238.77 224.91C242.199 224.908 245.542 225.989 248.32 228L252.87 231.28V200.51C252.872 198.752 253.572 197.068 254.815 195.825C256.057 194.582 257.742 193.883 259.5 193.88H279.6C279.622 193.881 279.643 193.887 279.662 193.897C279.681 193.907 279.697 193.922 279.71 193.94C279.717 193.957 279.721 193.976 279.721 193.995C279.721 194.014 279.717 194.033 279.71 194.05C278.671 196.655 278.141 199.435 278.15 202.24C278.273 208.029 280.659 213.54 284.797 217.59C288.934 221.641 294.494 223.91 300.285 223.91C306.075 223.91 311.635 221.641 315.773 217.59C319.911 213.54 322.297 208.029 322.42 202.24C322.429 199.435 321.899 196.655 320.86 194.05C320.85 194.033 320.845 194.014 320.845 193.995C320.845 193.976 320.85 193.957 320.86 193.94C320.872 193.922 320.888 193.906 320.907 193.896C320.926 193.885 320.948 193.88 320.97 193.88H341.07C342.827 193.883 344.512 194.582 345.755 195.825C346.998 197.068 347.697 198.752 347.7 200.51V282.1C347.697 283.854 347.001 285.536 345.762 286.778C344.524 288.02 342.844 288.722 341.09 288.73Z" fill="white"/>
</svg>
